{
  "accessors": [
    {
      "bufferView": 2,
      "componentType": 5126,
      "count": 65532,
      "max": [
        16.982414245605469,
        20.866048812866211,
        13.323369979858398
      ],
      "min": [
        -10.538519859313965,
        -13.457486152648926,
        -15.412473678588867
      ],
      "type": "VEC3"
    },
    {
      "bufferView": 2,
      "byteOffset": 786384,
      "componentType": 5126,
      "count": 65532,
      "max": [
        0.99999940395355225,
        0.83657628297805786,
        0.9999961256980896
      ],
      "min": [
        -0.99999988079071045,
        -0.99999850988388062,
        -0.99999076128005981
      ],
      "type": "VEC3"
    },
    {
      "bufferView": 3,
      "componentType": 5126,
      "count": 65532,
      "max": [
        0.99999088048934937,
        0.99999922513961792,
        0.981559157371521,
        1
      ],
      "min": [
        -0.99911999702453613,
        -0.95188987255096436,
        -0.99232631921768188,
        -1
      ],
      "type": "VEC4"
    },
    {
      "bufferView": 3,
      "byteOffset": 1048512,
      "componentType": 5126,
      "count": 65532,
      "max": [
        0.75294101238250732,
        0.75294101238250732,
        0.75294101238250732,
        1
      ],
      "min": [
        0.75294101238250732,
        0.75294101238250732,
        0.75294101238250732,
        1
      ],
      "type": "VEC4"
    },
    {
      "bufferView": 1,
      "componentType": 5126,
      "count": 65532,
      "max": [
        0.94673699140548706,
        0.99920797348022461
      ],
      "min": [
        0.00057299999753013253,
        0.076682999730110168
      ],
      "type": "VEC2"
    },
    {
      "bufferView": 0,
      "componentType": 5125,
      "count": 320625,
      "max": [
        65531
      ],
      "min": [
        0
      ],
      "type": "SCALAR"
    },
    {
      "bufferView": 2,
      "byteOffset": 1572768,
      "componentType": 5126,
      "count": 65532,
      "max": [
        16.957304000854492,
        20.94390869140625,
        13.006826400756836
      ],
      "min": [
        -12.248757362365723,
        -13.525363922119141,
        -15.282861709594727
      ],
      "type": "VEC3"
    },
    {
      "bufferView": 2,
      "byteOffset": 2359152,
      "componentType": 5126,
      "count": 65532,
      "max": [
        1,
        0.84860175848007202,
        0.99998462200164795
      ],
      "min": [
        -0.99999988079071045,
        -0.99999916553497314,
        -0.99999397993087769
      ],
      "type": "VEC3"
    },
    {
      "bufferView": 3,
      "byteOffset": 2097024,
      "componentType": 5126,
      "count": 65532,
      "max": [
        0.99999886751174927,
        0.99999934434890747,
        0.97976398468017578,
        1
      ],
      "min": [
        -0.99999898672103882,
        -0.98831504583358765,
        -0.96739327907562256,
        -1
      ],
      "type": "VEC4"
    },
    {
      "bufferView": 3,
      "byteOffset": 3145536,
      "componentType": 5126,
      "count": 65532,
      "max": [
        0.75294101238250732,
        0.75294101238250732,
        0.75294101238250732,
        1
      ],
      "min": [
        0.75294101238250732,
        0.75294101238250732,
        0.75294101238250732,
        1
      ],
      "type": "VEC4"
    },
    {
      "bufferView": 1,
      "byteOffset": 524256,
      "componentType": 5126,
      "count": 65532,
      "max": [
        0.99560099840164185,
        0.99792802333831787
      ],
      "min": [
        0.0017229999648407102,
        0.091604001820087433
      ],
      "type": "VEC2"
    },
    {
      "bufferView": 0,
      "byteOffset": 1282500,
      "componentType": 5125,
      "count": 315717,
      "max": [
        65531
      ],
      "min": [
        0
      ],
      "type": "SCALAR"
    },
    {
      "bufferView": 2,
      "byteOffset": 3145536,
      "componentType": 5126,
      "count": 65534,
      "max": [
        16.834802627563477,
        20.964969635009766,
        13.297313690185547
      ],
      "min": [
        -12.195941925048828,
        -13.517439842224121,
        -15.215253829956055
      ],
      "type": "VEC3"
    },
    {
      "bufferView": 2,
      "byteOffset": 3931944,
      "componentType": 5126,
      "count": 65534,
      "max": [
        0.9999997615814209,
        0.80828970670700073,
        0.9999961256980896
      ],
      "min": [
        -0.99999755620956421,
        -0.9999997615814209,
        -0.99999397993087769
      ],
      "type": "VEC3"
    },
    {
      "bufferView": 3,
      "byteOffset": 4194048,
      "componentType": 5126,
      "count": 65534,
      "max": [
        0.99999773502349854,
        0.99999886751174927,
        0.96326655149459839,
        1
      ],
      "min": [
        -0.99999868869781494,
        -0.97647726535797119,
        -0.98933321237564087,
        -1
      ],
      "type": "VEC4"
    },
    {
      "bufferView": 3,
      "byteOffset": 5242592,
      "componentType": 5126,
      "count": 65534,
      "max": [
        0.75294101238250732,
        0.75294101238250732,
        0.75294101238250732,
        1
      ],
      "min": [
        0.75294101238250732,
        0.75294101238250732,
        0.75294101238250732,
        1
      ],
      "type": "VEC4"
    },
    {
      "bufferView": 1,
      "byteOffset": 1048512,
      "componentType": 5126,
      "count": 65534,
      "max": [
        0.99372297525405884,
        0.99920797348022461
      ],
      "min": [
        0.00057299999753013253,
        0.085284002125263214
      ],
      "type": "VEC2"
    },
    {
      "bufferView": 0,
      "byteOffset": 2545368,
      "componentType": 5125,
      "count": 272565,
      "max": [
        65533
      ],
      "min": [
        0
      ],
      "type": "SCALAR"
    },
    {
      "bufferView": 2,
      "byteOffset": 4718352,
      "componentType": 5126,
      "count": 9208,
      "max": [
        16.591522216796875,
        20.905582427978516,
        13.255405426025391
      ],
      "min": [
        -11.862088203430176,
        -13.333124160766602,
        -15.035429000854492
      ],
      "type": "VEC3"
    },
    {
      "bufferView": 2,
      "byteOffset": 4828848,
      "componentType": 5126,
      "count": 9208,
      "max": [
        0.99999940395355225,
        0.80828970670700073,
        0.99986749887466431
      ],
      "min": [
        -0.99999552965164185,
        -0.99999916553497314,
        -0.99988901615142822
      ],
      "type": "VEC3"
    },
    {
      "bufferView": 3,
      "byteOffset": 6291136,
      "componentType": 5126,
      "count": 9208,
      "max": [
        0.99991422891616821,
        0.99999356269836426,
        0.9473300576210022,
        1
      ],
      "min": [
        -0.99999332427978516,
        -0.87408876419067383,
        -0.9852641224861145,
        -1
      ],
      "type": "VEC4"
    },
    {
      "bufferView": 3,
      "byteOffset": 6438464,
      "componentType": 5126,
      "count": 9208,
      "max": [
        0.75294101238250732,
        0.75294101238250732,
        0.75294101238250732,
        1
      ],
      "min": [
        0.75294101238250732,
        0.75294101238250732,
        0.75294101238250732,
        1
      ],
      "type": "VEC4"
    },
    {
      "bufferView": 1,
      "byteOffset": 1572784,
      "componentType": 5126,
      "count": 9208,
      "max": [
        0.99340897798538208,
        0.99802297353744507
      ],
      "min": [
        0.0023729999084025621,
        0.092881001532077789
      ],
      "type": "VEC2"
    },
    {
      "bufferView": 0,
      "byteOffset": 3635628,
      "componentType": 5125,
      "count": 11352,
      "max": [
        9207
      ],
      "min": [
        0
      ],
      "type": "SCALAR"
    }
  ],
  "asset": {
    "extras": {
      "author": "electricarchaeo (https://sketchfab.com/electricarchaeo)",
      "license": "CC-BY-4.0 (http://creativecommons.org/licenses/by/4.0/)",
      "source": "https://sketchfab.com/models/c287761136a8421ca9856edf8efd595e",
      "title": "Gravestone2"
    },
    "generator": "Sketchfab-3.29.4",
    "version": "2.0"
  },
  "bufferViews": [
    {
      "buffer": 0,
      "byteLength": 3681036,
      "byteOffset": 0,
      "name": "floatBufferViews",
      "target": 34963
    },
    {
      "buffer": 0,
      "byteLength": 1646448,
      "byteOffset": 3681036,
      "byteStride": 8,
      "name": "floatBufferViews",
      "target": 34962
    },
    {
      "buffer": 0,
      "byteLength": 4939344,
      "byteOffset": 5327484,
      "byteStride": 12,
      "name": "floatBufferViews",
      "target": 34962
    },
    {
      "buffer": 0,
      "byteLength": 6585792,
      "byteOffset": 10266828,
      "byteStride": 16,
      "name": "floatBufferViews",
      "target": 34962
    }
  ],
  "buffers": [
    {
      "byteLength": 16852620,
      "uri": "scene.bin"
    }
  ],
  "images": [
    {
      "uri": "textures/material_0_baseColor.jpeg"
    }
  ],
  "materials": [
    {
      "doubleSided": true,
      "emissiveFactor": [
        0,
        0,
        0
      ],
      "name": "material_0",
      "pbrMetallicRoughness": {
        "baseColorFactor": [
          1,
          1,
          1,
          1
        ],
        "baseColorTexture": {
          "index": 0,
          "texCoord": 0
        },
        "metallicFactor": 0,
        "roughnessFactor": 0.59999999999999998
      }
    }
  ],
  "meshes": [
    {
      "primitives": [
        {
          "attributes": {
            "COLOR_0": 3,
            "NORMAL": 1,
            "POSITION": 0,
            "TANGENT": 2,
            "TEXCOORD_0": 4
          },
          "indices": 5,
          "material": 0,
          "mode": 4
        }
      ]
    },
    {
      "primitives": [
        {
          "attributes": {
            "COLOR_0": 9,
            "NORMAL": 7,
            "POSITION": 6,
            "TANGENT": 8,
            "TEXCOORD_0": 10
          },
          "indices": 11,
          "material": 0,
          "mode": 4
        }
      ]
    },
    {
      "primitives": [
        {
          "attributes": {
            "COLOR_0": 15,
            "NORMAL": 13,
            "POSITION": 12,
            "TANGENT": 14,
            "TEXCOORD_0": 16
          },
          "indices": 17,
          "material": 0,
          "mode": 4
        }
      ]
    },
    {
      "primitives": [
        {
          "attributes": {
            "COLOR_0": 21,
            "NORMAL": 19,
            "POSITION": 18,
            "TANGENT": 20,
            "TEXCOORD_0": 22
          },
          "indices": 23,
          "material": 0,
          "mode": 4
        }
      ]
    }
  ],
  "nodes": [
    {
      "children": [
        1
      ],
      "name": "RootNode (gltf orientation matrix)",
      "rotation": [
        -0.70710678118654746,
        -0,
        -0,
        0.70710678118654757
      ]
    },
    {
      "children": [
        2
      ],
      "matrix": [
        0,
        -1,
        0,
        0,
        0,
        0,
        -1,
        0,
        1,
        0,
        0,
        0,
        3.4113693237304688,
        6.0864973068237305,
        2.6751279830932617,
        1
      ],
      "name": "RootNode (model correction matrix)"
    },
    {
      "children": [
        3,
        4,
        5,
        6
      ],
      "name": "mesh.obj.cleaner"
    },
    {
      "mesh": 0,
      "name": ""
    },
    {
      "mesh": 1,
      "name": ""
    },
    {
      "mesh": 2,
      "name": ""
    },
    {
      "mesh": 3,
      "name": ""
    }
  ],
  "samplers": [
    {
      "magFilter": 9729,
      "minFilter": 9987,
      "wrapS": 10497,
      "wrapT": 10497
    }
  ],
  "scene": 0,
  "scenes": [
    {
      "name": "OSG_Scene",
      "nodes": [
        0
      ]
    }
  ],
  "textures": [
    {
      "sampler": 0,
      "source": 0
    }
  ]
}

